HIERARCHY
ROOT mixamorig:Hips
{
	OFFSET -0.000008 104.274872 1.554316
	CHANNELS 6 Xposition Yposition Zposition Xrotation Yrotation Zrotation
	JOINT mixamorig:Spine
	{
		OFFSET -0.000005 10.181595 0.131519
		CHANNELS 6 Xposition Yposition Zposition Xrotation Yrotation Zrotation
		JOINT mixamorig:Spine1
		{
			OFFSET -0.000000 9.893959 -1.470707
			CHANNELS 6 Xposition Yposition Zposition Xrotation Yrotation Zrotation
			JOINT mixamorig:Spine2
			{
				OFFSET -0.000000 9.220757 -1.370641
				CHANNELS 6 Xposition Yposition Zposition Xrotation Yrotation Zrotation
				JOINT mixamorig:Neck
				{
					OFFSET 0.000001 16.740417 -2.049036
					CHANNELS 6 Xposition Yposition Zposition Xrotation Yrotation Zrotation
					JOINT mixamorig:Head
					{
						OFFSET 0.000000 9.617874 1.685006
						CHANNELS 6 Xposition Yposition Zposition Xrotation Yrotation Zrotation
						JOINT mixamorig:HeadTop_End
						{
							OFFSET 0.000002 22.037354 7.501101
							CHANNELS 6 Xposition Yposition Zposition Xrotation Yrotation Zrotation
							End Site
							{
								OFFSET 0.000168 2310.654297 -282.823242
							}
						}
					}
				}
				JOINT mixamorig:RightShoulder
				{
					OFFSET -4.569970 11.014908 -2.160885
					CHANNELS 6 Xposition Yposition Zposition Xrotation Yrotation Zrotation
					JOINT mixamorig:RightArm
					{
						OFFSET -10.592851 -0.524811 -2.232101
						CHANNELS 6 Xposition Yposition Zposition Xrotation Yrotation Zrotation
						JOINT mixamorig:RightForeArm
						{
							OFFSET -27.841511 0.000031 -0.000004
							CHANNELS 6 Xposition Yposition Zposition Xrotation Yrotation Zrotation
							JOINT mixamorig:RightHand
							{
								OFFSET -28.328831 -0.000015 0.000015
								CHANNELS 6 Xposition Yposition Zposition Xrotation Yrotation Zrotation
								JOINT mixamorig:RightHandThumb1
								{
									OFFSET -2.464806 -1.573990 2.681852
									CHANNELS 6 Xposition Yposition Zposition Xrotation Yrotation Zrotation
									JOINT mixamorig:RightHandThumb2
									{
										OFFSET -3.215179 -1.872803 1.924282
										CHANNELS 6 Xposition Yposition Zposition Xrotation Yrotation Zrotation
										JOINT mixamorig:RightHandThumb3
										{
											OFFSET -2.654831 -1.527969 1.512609
											CHANNELS 6 Xposition Yposition Zposition Xrotation Yrotation Zrotation
											JOINT mixamorig:RightHandThumb4
											{
												OFFSET -2.018814 -1.152008 1.108052
												CHANNELS 6 Xposition Yposition Zposition Xrotation Yrotation Zrotation
												End Site
												{
													OFFSET -188.809540 -114.533607 132.431396
												}
											}
										}
									}
								}
								JOINT mixamorig:RightHandIndex1
								{
									OFFSET -9.108284 -0.517868 2.259835
									CHANNELS 6 Xposition Yposition Zposition Xrotation Yrotation Zrotation
									JOINT mixamorig:RightHandIndex2
									{
										OFFSET -3.699989 0.000000 0.001215
										CHANNELS 6 Xposition Yposition Zposition Xrotation Yrotation Zrotation
										JOINT mixamorig:RightHandIndex3
										{
											OFFSET -2.850006 0.000031 -0.000522
											CHANNELS 6 Xposition Yposition Zposition Xrotation Yrotation Zrotation
											JOINT mixamorig:RightHandIndex4
											{
												OFFSET -2.772186 -0.000015 -0.000020
												CHANNELS 6 Xposition Yposition Zposition Xrotation Yrotation Zrotation
												End Site
												{
													OFFSET -277.218445 0.000000 -0.050231
												}
											}
										}
									}
								}
								JOINT mixamorig:RightHandMiddle1
								{
									OFFSET -9.532516 -0.000031 -0.000023
									CHANNELS 6 Xposition Yposition Zposition Xrotation Yrotation Zrotation
									JOINT mixamorig:RightHandMiddle2
									{
										OFFSET -3.700005 -0.000015 0.003713
										CHANNELS 6 Xposition Yposition Zposition Xrotation Yrotation Zrotation
										JOINT mixamorig:RightHandMiddle3
										{
											OFFSET -2.949974 0.000015 -0.002054
											CHANNELS 6 Xposition Yposition Zposition Xrotation Yrotation Zrotation
											JOINT mixamorig:RightHandMiddle4
											{
												OFFSET -2.946640 0.000000 -0.000156
												CHANNELS 6 Xposition Yposition Zposition Xrotation Yrotation Zrotation
												End Site
												{
													OFFSET -294.664337 0.000000 -0.113670
												}
											}
										}
									}
								}
								JOINT mixamorig:RightHandRing1
								{
									OFFSET -9.103600 -0.043076 -1.865134
									CHANNELS 6 Xposition Yposition Zposition Xrotation Yrotation Zrotation
									JOINT mixamorig:RightHandRing2
									{
										OFFSET -3.379288 0.000000 -0.001055
										CHANNELS 6 Xposition Yposition Zposition Xrotation Yrotation Zrotation
										JOINT mixamorig:RightHandRing3
										{
											OFFSET -2.889687 -0.000015 0.000379
											CHANNELS 6 Xposition Yposition Zposition Xrotation Yrotation Zrotation
											JOINT mixamorig:RightHandRing4
											{
												OFFSET -2.638809 -0.000015 0.000941
												CHANNELS 6 Xposition Yposition Zposition Xrotation Yrotation Zrotation
												End Site
												{
													OFFSET -263.880371 0.000000 0.516020
												}
											}
										}
									}
								}
								JOINT mixamorig:RightHandPinky1
								{
									OFFSET -8.076683 -0.486710 -3.806280
									CHANNELS 6 Xposition Yposition Zposition Xrotation Yrotation Zrotation
									JOINT mixamorig:RightHandPinky2
									{
										OFFSET -3.600014 -0.000015 -0.003747
										CHANNELS 6 Xposition Yposition Zposition Xrotation Yrotation Zrotation
										JOINT mixamorig:RightHandPinky3
										{
											OFFSET -2.099983 0.000000 -0.005739
											CHANNELS 6 Xposition Yposition Zposition Xrotation Yrotation Zrotation
											JOINT mixamorig:RightHandPinky4
											{
												OFFSET -2.115768 -0.000031 -0.003680
												CHANNELS 6 Xposition Yposition Zposition Xrotation Yrotation Zrotation
												End Site
												{
													OFFSET -211.577087 0.000000 -0.350686
												}
											}
										}
									}
								}
							}
						}
					}
				}
				JOINT mixamorig:LeftShoulder
				{
					OFFSET 4.570447 11.014725 -2.160855
					CHANNELS 6 Xposition Yposition Zposition Xrotation Yrotation Zrotation
					JOINT mixamorig:LeftArm
					{
						OFFSET 10.592371 -0.524597 -2.232119
						CHANNELS 6 Xposition Yposition Zposition Xrotation Yrotation Zrotation
						JOINT mixamorig:LeftForeArm
						{
							OFFSET 27.841532 -0.000031 0.000026
							CHANNELS 6 Xposition Yposition Zposition Xrotation Yrotation Zrotation
							JOINT mixamorig:LeftHand
							{
								OFFSET 28.328846 -0.000061 0.000022
								CHANNELS 6 Xposition Yposition Zposition Xrotation Yrotation Zrotation
								JOINT mixamorig:LeftHandThumb1
								{
									OFFSET 2.466141 -1.576172 2.681732
									CHANNELS 6 Xposition Yposition Zposition Xrotation Yrotation Zrotation
									JOINT mixamorig:LeftHandThumb2
									{
										OFFSET 3.217812 -1.872070 1.916482
										CHANNELS 6 Xposition Yposition Zposition Xrotation Yrotation Zrotation
										JOINT mixamorig:LeftHandThumb3
										{
											OFFSET 2.656029 -1.528778 1.514513
											CHANNELS 6 Xposition Yposition Zposition Xrotation Yrotation Zrotation
											JOINT mixamorig:LeftHandThumb4
											{
												OFFSET 2.020889 -1.154053 1.115139
												CHANNELS 6 Xposition Yposition Zposition Xrotation Yrotation Zrotation
												End Site
												{
													OFFSET 190.885437 -115.081749 130.048782
												}
											}
										}
									}
								}
								JOINT mixamorig:LeftHandIndex1
								{
									OFFSET 9.109314 -0.518021 2.259871
									CHANNELS 6 Xposition Yposition Zposition Xrotation Yrotation Zrotation
									JOINT mixamorig:LeftHandIndex2
									{
										OFFSET 3.699989 0.000000 -0.000322
										CHANNELS 6 Xposition Yposition Zposition Xrotation Yrotation Zrotation
										JOINT mixamorig:LeftHandIndex3
										{
											OFFSET 2.850006 0.000000 0.000352
											CHANNELS 6 Xposition Yposition Zposition Xrotation Yrotation Zrotation
											JOINT mixamorig:LeftHandIndex4
											{
												OFFSET 2.774864 -0.000031 -0.000027
												CHANNELS 6 Xposition Yposition Zposition Xrotation Yrotation Zrotation
												End Site
												{
													OFFSET 277.486267 0.000000 -0.009857
												}
											}
										}
									}
								}
								JOINT mixamorig:LeftHandMiddle1
								{
									OFFSET 9.533394 0.000061 0.000044
									CHANNELS 6 Xposition Yposition Zposition Xrotation Yrotation Zrotation
									JOINT mixamorig:LeftHandMiddle2
									{
										OFFSET 3.699989 -0.000015 -0.000231
										CHANNELS 6 Xposition Yposition Zposition Xrotation Yrotation Zrotation
										JOINT mixamorig:LeftHandMiddle3
										{
											OFFSET 2.949997 -0.000015 -0.000059
											CHANNELS 6 Xposition Yposition Zposition Xrotation Yrotation Zrotation
											JOINT mixamorig:LeftHandMiddle4
											{
												OFFSET 2.952896 0.000031 0.000063
												CHANNELS 6 Xposition Yposition Zposition Xrotation Yrotation Zrotation
												End Site
												{
													OFFSET 295.289337 0.000000 0.022810
												}
											}
										}
									}
								}
								JOINT mixamorig:LeftHandRing1
								{
									OFFSET 9.104523 -0.042999 -1.865074
									CHANNELS 6 Xposition Yposition Zposition Xrotation Yrotation Zrotation
									JOINT mixamorig:LeftHandRing2
									{
										OFFSET 3.150009 -0.000031 0.000043
										CHANNELS 6 Xposition Yposition Zposition Xrotation Yrotation Zrotation
										JOINT mixamorig:LeftHandRing3
										{
											OFFSET 2.949982 -0.000015 0.000040
											CHANNELS 6 Xposition Yposition Zposition Xrotation Yrotation Zrotation
											JOINT mixamorig:LeftHandRing4
											{
												OFFSET 2.644348 0.000000 0.000057
												CHANNELS 6 Xposition Yposition Zposition Xrotation Yrotation Zrotation
												End Site
												{
													OFFSET 264.434631 0.000000 0.012105
												}
											}
										}
									}
								}
								JOINT mixamorig:LeftHandPinky1
								{
									OFFSET 8.077789 -0.486847 -3.806259
									CHANNELS 6 Xposition Yposition Zposition Xrotation Yrotation Zrotation
									JOINT mixamorig:LeftHandPinky2
									{
										OFFSET 3.599953 0.000031 0.014727
										CHANNELS 6 Xposition Yposition Zposition Xrotation Yrotation Zrotation
										JOINT mixamorig:LeftHandPinky3
										{
											OFFSET 2.100021 0.000015 0.007705
											CHANNELS 6 Xposition Yposition Zposition Xrotation Yrotation Zrotation
											JOINT mixamorig:LeftHandPinky4
											{
												OFFSET 2.125504 0.000031 0.007517
												CHANNELS 6 Xposition Yposition Zposition Xrotation Yrotation Zrotation
												End Site
												{
													OFFSET 212.550781 0.000000 0.625752
												}
											}
										}
									}
								}
							}
						}
					}
				}
			}
		}
	}
	JOINT mixamorig:RightUpLeg
	{
		OFFSET -8.207787 -6.751648 -1.599560
		CHANNELS 6 Xposition Yposition Zposition Xrotation Yrotation Zrotation
		JOINT mixamorig:RightLeg
		{
			OFFSET -0.000002 -44.370117 0.345942
			CHANNELS 6 Xposition Yposition Zposition Xrotation Yrotation Zrotation
			JOINT mixamorig:RightFoot
			{
				OFFSET 0.000003 -44.423679 -3.043532
				CHANNELS 6 Xposition Yposition Zposition Xrotation Yrotation Zrotation
				JOINT mixamorig:RightToeBase
				{
					OFFSET -0.000002 -8.728671 10.710558
					CHANNELS 6 Xposition Yposition Zposition Xrotation Yrotation Zrotation
					JOINT mixamorig:RightToe_End
					{
						OFFSET -0.000001 -0.000679 9.278119
						CHANNELS 6 Xposition Yposition Zposition Xrotation Yrotation Zrotation
						End Site
						{
							OFFSET 0.000000 -0.067690 927.812134
						}
					}
				}
			}
		}
	}
	JOINT mixamorig:LeftUpLeg
	{
		OFFSET 8.207793 -6.751686 -1.599556
		CHANNELS 6 Xposition Yposition Zposition Xrotation Yrotation Zrotation
		JOINT mixamorig:LeftLeg
		{
			OFFSET -0.000004 -44.370014 0.346954
			CHANNELS 6 Xposition Yposition Zposition Xrotation Yrotation Zrotation
			JOINT mixamorig:LeftFoot
			{
				OFFSET -0.000001 -44.423672 -3.044401
				CHANNELS 6 Xposition Yposition Zposition Xrotation Yrotation Zrotation
				JOINT mixamorig:LeftToeBase
				{
					OFFSET -0.000002 -8.728669 10.710558
					CHANNELS 6 Xposition Yposition Zposition Xrotation Yrotation Zrotation
					JOINT mixamorig:LeftToe_End
					{
						OFFSET -0.000003 -0.000679 9.278133
						CHANNELS 6 Xposition Yposition Zposition Xrotation Yrotation Zrotation
						End Site
						{
							OFFSET 0.000000 -0.068021 927.813477
						}
					}
				}
			}
		}
	}
}
MOTION
Frames: 3
Frame Time: 0.033333
0.000006 104.270477 1.554256 0.000010 0.000003 -0.000113 -0.000005 10.181587 0.131522 0.000001 -0.000003 0.000084 -0.000000 9.893967 -1.470711 0.000001 0.000000 -0.000000 -0.000000 9.220802 -1.370642 0.000000 -0.000000 -0.000000 0.000001 16.740433 -2.049030 0.000000 -0.000000 -0.000000 0.000000 9.617859 1.685014 0.000000 0.000000 0.000000 0.000002 22.037384 7.501101 0.000000 -0.000000 0.000000 -4.569968 11.014880 -2.160881 0.000008 0.000001 -0.000038 -10.592874 -0.524764 -2.231900 75.069352 29.293227 -22.707118 -27.841507 0.000010 0.000545 -49.382503 109.776303 66.360492 -28.328842 0.000022 0.000022 -0.000318 -0.000045 0.000006 -2.464386 -1.573893 2.682346 -35.766866 -150.341439 13.865413 -3.215252 -1.872519 1.924617 150.540142 33.815590 24.044837 -2.654953 -1.527895 1.513067 149.972526 26.940366 -32.003750 -2.018827 -1.152014 1.108072 -0.000003 -0.000003 0.000002 -9.108391 -0.517583 2.260187 111.912274 17.530896 -25.781036 -3.700063 0.000309 0.001554 106.806147 13.971526 -18.707856 -2.850087 0.000366 -0.000204 106.875365 9.997193 -13.450686 -2.772168 -0.000017 -0.000015 -0.000000 -0.000002 -0.000001 -9.532603 0.000247 0.000317 109.842467 16.974885 -24.196403 -3.700071 0.000326 0.004047 108.233575 12.159928 -16.620856 -2.950041 0.000330 -0.001760 108.738408 10.118577 -14.073162 -2.946617 -0.000002 -0.000155 0.000002 0.000001 0.000000 -9.103704 -0.042785 -1.864783 108.513456 17.791237 -24.476335 -3.379333 0.000308 -0.000728 110.893387 11.427233 -16.558931 -2.889771 0.000335 0.000746 113.777885 7.446785 -11.467561 -2.638837 0.000000 0.000938 0.000000 0.000001 0.000002 -8.076776 -0.486418 -3.805974 98.800346 20.886667 -24.093098 -3.600064 0.000266 -0.003457 101.923279 12.010141 -14.326767 -2.100015 0.000311 -0.005423 102.996445 6.283028 -7.615380 -2.115787 -0.000051 -0.003677 0.000000 -0.000001 -0.000005 4.570446 11.014691 -2.160851 -0.000018 0.000010 -0.000021 10.592416 -0.524463 -2.232369 74.777888 -17.932633 13.751749 27.841827 0.000074 -0.000210 108.011935 -71.434196 89.416820 28.328850 -0.000028 0.000024 0.000026 -0.000088 -0.000001 2.465940 -1.576139 2.681912 -46.377862 169.474041 5.747185 3.217838 -1.871814 1.916389 154.895344 -26.907334 24.556997 2.656106 -1.528644 1.514454 138.970280 -28.206487 42.506477 2.020894 -1.154066 1.115150 -0.000003 0.000002 0.000004 9.109367 -0.517856 2.259752 84.031408 -14.538840 13.100247 3.700041 0.000139 -0.000457 79.718444 -13.443217 11.253908 2.850049 0.000175 0.000190 76.766409 -12.065103 9.569054 2.774895 -0.000032 -0.000022 -0.000001 0.000000 -0.000000 9.533455 0.000196 -0.000079 79.918315 -14.758654 12.379048 3.700045 0.000147 -0.000359 80.138261 -14.463141 12.182353 2.950062 0.000127 -0.000194 78.825683 -17.179982 14.155151 2.952853 -0.000018 0.000060 0.000001 0.000001 -0.000001 9.104584 -0.042862 -1.865218 79.384283 -15.109172 12.564600 3.150045 0.000168 -0.000089 81.593030 -16.408816 14.188290 2.950022 0.000143 -0.000066 83.683621 -17.042280 15.283885 2.644329 0.000012 0.000057 0.000000 -0.000000 -0.000002 8.077847 -0.486787 -3.806388 60.147288 -19.600022 11.792906 3.599979 0.000106 0.014587 59.845120 -15.929270 9.522652 2.100025 0.000122 0.007549 63.176538 -13.941695 8.911779 2.125485 -0.000013 0.007508 0.000005 0.000001 0.000001 -8.207786 -6.751667 -1.599560 -0.077001 -0.000003 0.000080 -0.000002 -44.370110 0.345938 0.153719 -0.000000 -0.000000 0.000000 -44.423679 -3.043532 -0.076700 0.000000 -0.000002 -0.000006 -8.728667 10.710559 -0.000009 -0.000000 -0.000000 -0.000001 -0.000679 9.278123 0.000000 -0.000000 -0.000000 8.207792 -6.751710 -1.599556 -0.074518 -0.000003 0.000081 -0.000002 -44.370014 0.346960 0.148822 0.000002 0.000000 -0.000001 -44.423664 -3.044403 -0.074314 0.000000 -0.000002 -0.000004 -8.728671 10.710558 0.000007 -0.000000 -0.000000 0.000000 -0.000680 9.278137 -0.000000 0.000000 -0.000001 
0.000006 104.270477 1.554256 0.000010 0.000003 -0.000113 -0.000005 10.181587 0.131522 0.000001 -0.000003 0.000084 -0.000000 9.893967 -1.470711 0.000001 0.000000 -0.000000 -0.000000 9.220802 -1.370642 0.000000 -0.000000 -0.000000 0.000001 16.740433 -2.049030 0.000000 -0.000000 -0.000000 0.000000 9.617859 1.685014 0.000000 0.000000 0.000000 0.000002 22.037384 7.501101 0.000000 -0.000000 0.000000 -4.569968 11.014880 -2.160881 0.000008 0.000001 -0.000038 -10.592846 -0.524810 -2.231818 75.989959 45.444472 -36.227525 -27.841518 0.000006 0.000552 -46.773808 103.986618 57.920182 -28.328817 0.000018 0.000029 -0.000321 -0.000044 0.000008 -2.464385 -1.573824 2.682316 -44.856052 -154.347153 -3.834550 -3.215234 -1.872501 1.924621 147.398009 33.648606 30.251191 -2.654958 -1.527881 1.513066 149.135924 27.268738 -30.230598 -2.018838 -1.152014 1.108061 -0.000003 -0.000001 0.000004 -9.108360 -0.517537 2.260168 109.791254 14.150039 -20.091560 -3.700060 0.000339 0.001564 108.222531 10.839100 -14.907880 -2.850078 0.000378 -0.000227 107.532579 8.120399 -11.064276 -2.772163 -0.000001 -0.000016 0.000000 -0.000001 -0.000000 -9.532558 0.000288 0.000310 108.326903 13.174532 -18.360520 -3.700061 0.000340 0.004028 108.827207 9.242979 -12.762315 -2.950052 0.000345 -0.001736 108.301337 8.626518 -11.909220 -2.946626 0.000001 -0.000155 -0.000001 -0.000001 0.000001 -9.103685 -0.042737 -1.864792 107.662120 15.268791 -20.719879 -3.379325 0.000307 -0.000721 111.449153 8.012535 -11.759781 -2.889739 0.000336 0.000742 115.143083 6.440611 -10.193543 -2.638802 -0.000016 0.000943 0.000002 -0.000001 -0.000003 -8.076744 -0.486390 -3.805965 99.469418 20.092972 -23.446615 -3.600041 0.000270 -0.003441 102.837418 8.554762 -10.266760 -2.100019 0.000319 -0.005426 105.257655 4.212446 -5.232054 -2.115773 -0.000042 -0.003682 0.000001 -0.000001 -0.000007 4.570446 11.014691 -2.160851 -0.000018 0.000010 -0.000021 10.592484 -0.524471 -2.232399 74.401039 -39.106559 30.175509 27.841831 0.000036 -0.000184 112.148557 -77.347767 99.915661 28.328846 -0.000025 0.000028 0.000021 -0.000089 0.000000 2.465953 -1.576136 2.681929 -43.877596 170.979880 -2.089318 3.217860 -1.871818 1.916379 159.796251 -25.388527 29.409517 2.656105 -1.528668 1.514483 138.079296 -28.147800 53.027540 2.020891 -1.154080 1.115150 0.000002 0.000004 0.000002 9.109369 -0.517872 2.259728 81.435560 -16.939407 14.596019 3.700038 0.000137 -0.000472 79.004928 -11.127698 9.196737 2.850038 0.000170 0.000194 78.686723 -9.498629 7.791364 2.774879 -0.000017 -0.000028 -0.000003 -0.000000 0.000000 9.533435 0.000183 -0.000082 78.054377 -16.675861 13.542377 3.700054 0.000160 -0.000369 80.962501 -10.877706 9.289596 2.950057 0.000149 -0.000205 82.887945 -12.099079 10.694619 2.952865 -0.000032 0.000063 -0.000004 -0.000000 0.000000 9.104578 -0.042875 -1.865226 76.842258 -16.996697 13.519889 3.150031 0.000194 -0.000107 83.955674 -12.103596 10.899007 2.950016 0.000168 -0.000081 86.329001 -11.745650 11.022507 2.644323 0.000044 0.000059 0.000006 0.000002 0.000001 8.077817 -0.486775 -3.806368 61.723231 -19.079107 11.846184 3.599994 0.000117 0.014580 64.053480 -16.533455 10.726988 2.100045 0.000135 0.007544 67.357659 -13.152193 9.118242 2.125498 -0.000015 0.007514 0.000001 -0.000003 -0.000001 -8.207786 -6.751667 -1.599560 -0.077001 -0.000003 0.000080 -0.000002 -44.370110 0.345938 0.153719 -0.000000 -0.000000 0.000000 -44.423679 -3.043532 -0.076700 0.000000 -0.000002 -0.000006 -8.728667 10.710559 -0.000009 -0.000000 -0.000000 -0.000001 -0.000679 9.278123 0.000000 -0.000000 -0.000000 8.207792 -6.751710 -1.599556 -0.074518 -0.000003 0.000081 -0.000002 -44.370014 0.346960 0.148822 0.000002 0.000000 -0.000001 -44.423664 -3.044403 -0.074314 0.000000 -0.000002 -0.000004 -8.728671 10.710558 0.000007 -0.000000 -0.000000 0.000000 -0.000680 9.278137 -0.000000 0.000000 -0.000001 
0.000006 104.270477 1.554256 0.000010 0.000003 -0.000113 -0.000005 10.181587 0.131522 0.000001 -0.000003 0.000084 -0.000000 9.893967 -1.470711 0.000001 0.000000 -0.000000 -0.000000 9.220802 -1.370642 0.000000 -0.000000 -0.000000 0.000001 16.740433 -2.049030 0.000000 -0.000000 -0.000000 0.000000 9.617859 1.685014 0.000000 0.000000 0.000000 0.000002 22.037384 7.501101 0.000000 -0.000000 0.000000 -4.569968 11.014880 -2.160881 0.000008 0.000001 -0.000038 -10.592846 -0.524811 -2.231821 76.157456 44.667477 -35.684286 -27.841515 0.000003 0.000556 -46.267141 103.178497 56.633378 -28.328829 -0.000004 0.000025 -0.000320 -0.000046 0.000007 -2.464392 -1.573829 2.682321 -44.637540 -154.650263 -3.307421 -3.215257 -1.872527 1.924620 149.553959 33.466878 23.513304 -2.654965 -1.527877 1.513075 148.529567 27.124546 -32.412591 -2.018837 -1.151997 1.108054 -0.000005 -0.000000 0.000000 -9.108375 -0.517553 2.260190 109.875655 13.977994 -19.880884 -3.700049 0.000325 0.001571 108.342202 10.186103 -14.043065 -2.850051 0.000382 -0.000210 107.078235 7.496904 -10.132762 -2.772177 0.000001 -0.000012 -0.000002 -0.000002 -0.000001 -9.532578 0.000274 0.000307 108.404186 13.385241 -18.675194 -3.700052 0.000335 0.004051 109.421543 9.170331 -12.800081 -2.950041 0.000342 -0.001731 108.905720 8.500544 -11.866186 -2.946610 0.000012 -0.000152 0.000003 -0.000003 0.000001 -9.103693 -0.042759 -1.864801 108.261893 15.559161 -21.339019 -3.379327 0.000322 -0.000718 112.493571 8.782805 -13.136861 -2.889752 0.000344 0.000724 116.153637 6.833829 -11.022166 -2.638811 -0.000027 0.000939 -0.000001 0.000005 -0.000002 -8.076758 -0.486403 -3.805942 99.290057 20.140387 -23.429492 -3.600053 0.000281 -0.003440 103.829367 9.321289 -11.419912 -2.100016 0.000317 -0.005426 106.981840 4.815893 -6.209720 -2.115769 -0.000053 -0.003681 0.000002 0.000001 -0.000003 4.570446 11.014691 -2.160851 -0.000018 0.000010 -0.000021 10.592492 -0.524466 -2.232406 74.168853 -40.751948 31.363624 27.841824 0.000023 -0.000182 111.595872 -78.480574 100.469740 28.328840 -0.000030 0.000019 0.000025 -0.000090 0.000002 2.465915 -1.576122 2.681909 -48.059424 175.923953 10.243834 3.217854 -1.871820 1.916400 159.111483 -25.498102 29.344822 2.656092 -1.528685 1.514475 137.520941 -28.337482 52.710124 2.020902 -1.154064 1.115147 0.000004 0.000000 0.000001 9.109380 -0.517894 2.259735 81.700858 -16.546565 14.322275 3.700038 0.000139 -0.000473 79.290327 -10.580677 8.788667 2.850026 0.000190 0.000191 78.765147 -8.960401 7.359455 2.774881 -0.000019 -0.000025 -0.000001 0.000001 -0.000001 9.533448 0.000191 -0.000085 78.296569 -16.157863 13.175871 3.700037 0.000161 -0.000372 81.432500 -10.388794 8.944988 2.950061 0.000166 -0.000200 83.232514 -11.596464 10.311710 2.952857 -0.000049 0.000065 0.000002 -0.000002 0.000001 9.104577 -0.042879 -1.865238 76.797582 -16.394469 13.028096 3.150037 0.000177 -0.000110 83.942840 -11.699220 10.532071 2.950016 0.000174 -0.000072 86.186626 -11.281974 10.560904 2.644320 0.000030 0.000057 0.000001 0.000001 0.000002 8.077832 -0.486773 -3.806397 62.662949 -18.385239 11.632715 3.599993 0.000131 0.014588 64.565245 -15.926574 10.442288 2.100036 0.000138 0.007557 67.405286 -12.662550 8.795403 2.125494 0.000001 0.007509 0.000000 -0.000003 0.000001 -8.207786 -6.751667 -1.599560 -0.077001 -0.000003 0.000080 -0.000002 -44.370110 0.345938 0.153719 -0.000000 -0.000000 0.000000 -44.423679 -3.043532 -0.076700 0.000000 -0.000002 -0.000006 -8.728667 10.710559 -0.000009 -0.000000 -0.000000 -0.000001 -0.000679 9.278123 0.000000 -0.000000 -0.000000 8.207792 -6.751710 -1.599556 -0.074518 -0.000003 0.000081 -0.000002 -44.370014 0.346960 0.148822 0.000002 0.000000 -0.000001 -44.423664 -3.044403 -0.074314 0.000000 -0.000002 -0.000004 -8.728671 10.710558 0.000007 -0.000000 -0.000000 0.000000 -0.000680 9.278137 -0.000000 0.000000 -0.000001 
